<svg width="143" height="151" viewBox="0 0 143 151" fill="none" xmlns="http://www.w3.org/2000/svg">
<g clip-path="url(#clip0)">
<path d="M126.173 55.9235L56.7816 124.258C53.6464 127.346 48.5623 127.346 45.426 124.258L4.59273 84.0459C1.45639 80.9573 1.45639 75.9505 4.59273 72.863L73.9829 4.52757C77.1193 1.44011 82.2034 1.44011 85.3386 4.52757L126.173 44.7406C129.308 47.8281 129.308 52.8349 126.173 55.9235Z" fill="#8CBAFA"/>
<path d="M126.173 44.7406L121.076 39.7212C123.869 42.4711 123.59 47.2037 120.455 50.2923L51.0636 118.627C47.9284 121.715 43.1227 121.989 40.3303 119.239L45.4261 124.258C48.5625 127.346 53.6466 127.346 56.7818 124.258L126.173 55.9235C129.308 52.8348 129.308 47.8281 126.173 44.7406Z" fill="#5692D8"/>
<path d="M72.8495 20.1032L66.0504 26.7988C63.3761 29.4312 63.3761 33.6984 66.0504 36.3308C68.7234 38.9632 73.0565 38.9632 75.7296 36.3308L82.5287 29.6351C85.2018 27.0027 85.2018 22.7356 82.5287 20.1032C79.8556 17.4707 75.5226 17.4707 72.8495 20.1032Z" fill="#FFCD34"/>
<path d="M132.725 76.1049H34.5923C30.1574 76.1049 26.5625 79.6451 26.5625 84.0113V140.881C26.5625 145.248 30.1574 148.788 34.5923 148.788H132.725C137.159 148.788 140.754 145.248 140.754 140.881V84.0113C140.754 79.6451 137.159 76.1049 132.725 76.1049Z" fill="#FFCD34"/>
<path d="M132.725 76.1049H125.538C129.972 76.1049 133.566 79.6451 133.566 84.0113V140.881C133.566 145.248 129.972 148.788 125.538 148.788H132.725C137.159 148.788 140.754 145.248 140.754 140.881V84.0113C140.754 79.6451 137.159 76.1049 132.725 76.1049Z" fill="#E69012"/>
<path d="M26.5625 93.9694H140.754V107.631H26.5625V93.9694Z" fill="#575B7A"/>
<path d="M133.566 93.9694H140.754V107.631H133.566V93.9694Z" fill="#252D4C"/>
<path d="M112.688 129.462V137.888C112.688 138.54 113.224 139.067 113.886 139.067H127.496C128.158 139.067 128.694 138.54 128.694 137.888V129.462C128.694 128.809 128.158 128.282 127.496 128.282H113.886C113.224 128.282 112.688 128.809 112.688 129.462Z" fill="#E9E9EA"/>
<path d="M71.6538 129.462V137.888C71.6538 138.54 72.1908 139.067 72.8517 139.067H101.638C102.3 139.067 102.836 138.54 102.836 137.888V129.462C102.836 128.809 102.3 128.282 101.638 128.282H72.8517C72.1908 128.282 71.6538 128.809 71.6538 129.462Z" fill="#E9E9EA"/>
<path d="M6.18143 82.4824C3.92598 80.2613 3.92598 76.6473 6.18143 74.4274L61.2212 20.2251C62.0986 19.3611 62.0986 17.9602 61.2212 17.0973C60.3438 16.2321 58.9213 16.2333 58.0451 17.0973L3.00415 71.2996C-1.00138 75.2442 -1.00138 81.6645 3.00415 85.6102L16.8679 99.2619C17.3054 99.6927 17.881 99.9093 18.4554 99.9093C19.0309 99.9093 19.6053 99.6939 20.044 99.2619C20.9214 98.3978 20.9214 96.9969 20.044 96.1341L6.18143 82.4824Z" fill="black"/>
<path d="M50.3358 44.0505L16.3472 77.5219C15.4699 78.3859 15.4699 79.7868 16.3472 80.6508C16.7859 81.0817 17.3603 81.2982 17.9359 81.2982C18.5103 81.2982 19.0847 81.0828 19.5234 80.6508L53.5119 47.1795C54.3893 46.3154 54.3893 44.9146 53.5119 44.0505C52.6357 43.1877 51.2131 43.1877 50.3358 44.0505Z" fill="black"/>
<path d="M70.8899 40.5139C73.2179 40.5139 75.5458 39.6418 77.3182 37.8965L84.1173 31.2008C87.6619 27.7101 87.6619 22.0306 84.1173 18.5399C80.5726 15.0492 74.8053 15.0492 71.2607 18.5399L64.4616 25.2356C62.7443 26.9268 61.7991 29.1744 61.7991 31.566C61.7991 33.9565 62.7443 36.2053 64.4616 37.8965C66.2339 39.6418 68.5619 40.5139 70.8899 40.5139ZM67.6377 28.3633L74.4368 21.6677C76.2302 19.9016 79.1478 19.9016 80.94 21.6677C82.7333 23.4338 82.7333 26.307 80.94 28.0719L74.1409 34.7675C72.3487 36.5336 69.4311 36.5336 67.6377 34.7675C66.7697 33.9127 66.2913 32.7757 66.2913 31.566C66.2913 30.3564 66.7697 29.2182 67.6377 28.3633Z" fill="black"/>
<path d="M132.724 73.8929H111.103L127.762 57.4879C131.768 53.5421 131.768 47.1218 127.762 43.1761L86.9274 2.9642C84.9866 1.05296 82.406 0 79.6615 0C76.9171 0 74.3364 1.05296 72.3945 2.9642L64.3928 10.8441C63.5166 11.7082 63.5166 13.1079 64.3928 13.9719C65.2701 14.836 66.6927 14.836 67.5689 13.9719L75.5718 6.09198C76.6632 5.01598 78.1161 4.42383 79.6615 4.42383C81.2057 4.42383 82.6586 5.01598 83.7513 6.09198L124.585 46.3039C126.84 48.525 126.84 52.1378 124.585 54.3589L104.75 73.8918H47.9881L64.3144 57.8139C65.1918 56.951 65.1918 55.5501 64.3144 54.6861C63.437 53.8221 62.0145 53.8221 61.1383 54.6861L41.6359 73.8929H34.5923C28.9256 73.8929 24.3164 78.4319 24.3164 84.0113V140.88C24.3164 146.46 28.9256 151 34.5923 151H132.724C138.391 151 143 146.46 143 140.88V132.706C143 131.483 141.995 130.494 140.754 130.494C139.514 130.494 138.508 131.483 138.508 132.706V140.88C138.508 144.021 135.914 146.576 132.724 146.576H34.5923C31.4033 146.576 28.8086 144.021 28.8086 140.88V109.843H138.508V123.858C138.508 125.079 139.513 126.07 140.754 126.07C141.995 126.07 143 125.079 143 123.858V84.0124C143 78.4319 138.391 73.8929 132.724 73.8929ZM34.5923 78.3167H132.724C135.913 78.3167 138.508 80.872 138.508 84.0124V91.7587H28.8086V84.0124C28.8086 80.872 31.4033 78.3167 34.5923 78.3167ZM28.8086 105.42V96.1825H138.508V105.42H28.8086Z" fill="black"/>
<path d="M113.886 126.07C111.987 126.07 110.442 127.592 110.442 129.461V137.887C110.442 139.758 111.987 141.279 113.886 141.279H127.496C129.395 141.279 130.94 139.758 130.94 137.887V129.461C130.94 127.592 129.395 126.07 127.496 126.07H113.886ZM126.448 136.855H114.934V130.494H126.448V136.855Z" fill="black"/>
<path d="M72.8517 126.07C70.9531 126.07 69.4077 127.592 69.4077 129.461V137.887C69.4077 139.758 70.9531 141.279 72.8517 141.279H101.638C103.537 141.279 105.082 139.758 105.082 137.887V129.461C105.082 127.592 103.537 126.07 101.638 126.07H72.8517ZM100.59 136.855H73.8999V130.494H100.59V136.855Z" fill="black"/>
<path d="M45.5781 136.855C44.3381 136.855 43.332 137.846 43.332 139.067C43.332 140.29 44.3381 141.279 45.5781 141.279H59.9204C61.1604 141.279 62.1665 140.29 62.1665 139.067C62.1665 137.846 61.1604 136.855 59.9204 136.855H45.5781Z" fill="black"/>
</g>
<defs>
<clipPath id="clip0">
<rect width="143" height="151" fill="white"/>
</clipPath>
</defs>
</svg>
