<svg width="124" height="151" viewBox="0 0 124 151" fill="none" xmlns="http://www.w3.org/2000/svg">
<path d="M121.789 17.3552C121.748 22.5075 118.979 26.9991 114.868 29.4735C112.694 30.7829 110.143 31.5261 107.42 31.5025C99.5505 31.4377 93.2218 24.9966 93.2866 17.1163C93.3073 14.5888 93.9849 12.2206 95.1546 10.1709C97.6295 5.83264 102.311 2.92472 107.659 2.97191C115.528 3.03679 121.857 9.47491 121.789 17.3552Z" fill="#585E60"/>
<path d="M114.868 29.4721C112.694 30.7816 110.143 31.5248 107.42 31.5012C99.5505 31.4363 93.2218 24.9952 93.2866 17.115C93.3073 14.5875 93.9849 12.2193 95.1546 10.1696C103.054 15.0774 109.798 21.6833 114.868 29.4721Z" fill="#414749"/>
<path d="M30.7127 16.5967C30.6479 24.474 24.2131 30.8089 16.3406 30.744C13.8509 30.7234 11.5174 30.0657 9.49038 28.9273C5.10921 26.4618 2.16289 21.746 2.21003 16.3607C2.27485 8.48046 8.70666 2.14557 16.5792 2.2134C22.0682 2.25764 26.8088 5.40739 29.1512 9.98161C30.1676 11.9638 30.7333 14.2137 30.7127 16.5967Z" fill="#585E60"/>
<path d="M29.1513 9.98145C30.1677 11.9633 30.7334 14.2136 30.7128 16.5965C30.648 24.4738 24.2132 30.8087 16.3407 30.7439C13.851 30.7232 11.5175 30.0655 9.49048 28.9272C14.5847 21.2737 21.3052 14.7946 29.1513 9.98145Z" fill="#414749"/>
<path d="M120.64 63.8451C120.64 93.3856 98.8374 117.83 70.462 121.938C67.6981 122.336 64.8731 122.543 61.9999 122.543C49.4828 122.543 37.8828 118.618 28.3606 111.929C13.2433 101.312 3.35962 83.7322 3.35962 63.8451C3.35962 31.4286 29.6148 5.14734 61.9999 5.14734C94.3849 5.14734 120.64 31.4286 120.64 63.8451Z" fill="#F9E8D4"/>
<path d="M79.452 108.712L70.4619 121.938C67.6979 122.336 64.873 122.543 61.9997 122.543C49.4826 122.543 37.8826 118.618 28.3604 111.929C26.6533 107.946 25.6268 104.291 25.0285 101.634C24.6183 99.8222 25.0467 97.9583 26.1949 96.5173C27.3431 95.0823 29.1168 94.2249 30.9455 94.2249C32.2304 94.2249 33.4635 94.6292 34.5115 95.3955C38.3812 98.217 43.9182 102.987 48.3256 109.7C48.5018 109.971 48.6809 110.244 48.86 110.521L68.8667 99.0085L79.452 108.712Z" fill="#EFCDB1"/>
<path d="M120.64 63.845C120.64 96.2615 94.3847 122.543 61.9996 122.543C61.0002 122.543 60.007 122.518 59.0229 122.47C90.0226 120.913 114.683 95.2612 114.683 63.845C114.683 32.4286 90.0226 6.77699 59.0229 5.2204C60.007 5.17174 61.0002 5.14755 61.9996 5.14755C94.3847 5.14726 120.64 31.4285 120.64 63.845Z" fill="#EFCDB1"/>
<path d="M75.6832 52.5712C75.6832 52.5712 64.5544 56.4535 69.0092 70.7692C73.4641 85.085 83.6312 94.933 93.1081 90.009C102.585 85.085 100.335 65.4294 93.9546 56.7761C87.574 48.1229 75.6832 52.5712 75.6832 52.5712Z" fill="#585E60"/>
<path d="M48.3164 52.5711C48.3164 52.5711 59.4452 56.4534 54.9904 70.7692C50.5355 85.0849 40.3684 94.9329 30.8916 90.0089C21.4147 85.0849 23.6645 65.4293 30.0451 56.776C36.4256 48.1228 48.3164 52.5711 48.3164 52.5711Z" fill="#585E60"/>
<path d="M62.0001 92.0835C65.474 92.0835 68.2902 89.2646 68.2902 85.7872C68.2902 82.3099 65.474 79.491 62.0001 79.491C58.5261 79.491 55.71 82.3099 55.71 85.7872C55.71 89.2646 58.5261 92.0835 62.0001 92.0835Z" fill="#8B5016"/>
<path d="M29.4724 100.631C29.166 99.2698 30.704 98.2597 31.8301 99.081C35.0905 101.458 40.3812 105.905 44.5187 112.206C45.057 113.023 45.5717 113.839 46.0646 114.641C46.8433 115.911 47.5658 117.157 48.2269 118.366C49.2897 120.309 50.1898 122.157 50.9087 123.84L44.6127 127.984C42.7194 125.987 40.6487 123.46 38.583 120.57C37.8792 119.585 37.1747 118.56 36.4782 117.496C35.8144 116.485 35.2051 115.467 34.6479 114.45C31.732 109.137 30.2173 103.937 29.4724 100.631Z" fill="#009655"/>
<path d="M38.5828 120.571L46.0644 114.642C46.8431 115.912 47.5655 117.158 48.2267 118.367C49.2894 120.31 50.1895 122.157 50.9084 123.841L44.6124 127.984C42.7194 125.987 40.6484 123.461 38.5828 120.571Z" fill="#006B42"/>
<path d="M34.6475 114.45C37.4397 115.116 41.0581 116.135 48.2267 118.367C49.2895 120.309 50.1896 122.157 50.9085 123.84L44.6125 127.984C42.0725 125.307 39.2204 121.678 36.4777 117.497C35.8136 116.486 35.2046 115.468 34.6475 114.45Z" fill="#006B42"/>
<path d="M13.9135 119.064C12.542 118.37 12.968 116.309 14.5022 116.216C18.528 115.971 24.6749 115.974 31.2921 117.345C34.4084 117.989 37.3391 118.723 39.9478 119.488C41.4395 119.925 42.8222 120.372 44.0767 120.822L42.8879 126.578C39.961 126.391 36.4576 125.948 32.6645 125.26C31.7196 125.088 30.7529 124.899 29.7747 124.696C23.1567 123.326 17.5124 120.888 13.9135 119.064Z" fill="#00C37A"/>
<path d="M32.6646 125.26L39.9478 119.488C41.4396 119.925 42.8223 120.372 44.0768 120.822L42.888 126.578C39.9614 126.391 36.4579 125.948 32.6646 125.26Z" fill="#009655"/>
<path d="M25.6975 135.311L71.1486 98.213L79.4519 108.712L34.0008 145.81L25.6975 135.311Z" fill="#A4E869"/>
<path d="M25.6975 135.311L31.1986 130.952C31.3427 131.104 31.4823 131.265 31.6143 131.432L39.113 140.913C39.2509 141.088 39.3817 141.268 39.5001 141.452L34.0011 145.81L25.6975 135.311Z" fill="#60DC4D"/>
<path d="M71.1487 98.213L73.5411 101.237L28.0906 138.335L25.6985 135.31L71.1487 98.213Z" fill="#60DC4D"/>
<path d="M28.8324 133.638L36.3299 143.117C37.5279 144.632 37.2725 146.832 35.7592 148.031C34.246 149.231 32.0477 148.975 30.8498 147.46L23.3523 137.981C22.1543 136.466 22.4097 134.265 23.923 133.066C25.4362 131.867 27.6345 132.123 28.8324 133.638Z" fill="#A4E869"/>
<path d="M77.7711 94.6005C73.1177 94.6005 69.3452 98.3766 69.3452 103.035C69.3452 107.693 73.1177 111.469 77.7711 111.469L83.0639 110.829V94.6005H77.7711Z" fill="#F9E8D4"/>
<path d="M59.5289 7.41743C60.4214 7.37909 61.2296 7.36051 62 7.36051C90.7897 7.36051 114.897 28.9278 118.077 57.5277C118.203 58.6587 119.159 59.4954 120.27 59.4954C120.352 59.4954 120.434 59.4907 120.517 59.4816C121.73 59.3465 122.604 58.2526 122.469 57.0387C121.49 48.2303 118.606 39.8248 114.09 32.3524C119.97 29.7892 123.945 23.925 123.999 17.3734C124.037 12.9714 122.36 8.8189 119.276 5.68094C116.193 2.54328 112.074 0.795282 107.678 0.759007C100.883 0.705036 94.8049 4.83511 92.2911 11.0158C83.1434 5.75437 72.7267 2.9367 62 2.9367C61.1659 2.9367 60.2959 2.95646 59.3395 2.99775C58.1203 3.05025 57.1742 4.08217 57.2267 5.30226C57.2788 6.52294 58.3071 7.47229 59.5289 7.41743ZM107.641 5.18282C110.857 5.20936 113.871 6.48784 116.125 8.78292C118.381 11.078 119.608 14.1154 119.58 17.3359C119.538 22.3923 116.307 26.8899 111.614 28.5821C109.04 24.9593 106.061 21.599 102.706 18.5743C100.618 16.6915 98.4159 14.9674 96.1172 13.407C97.7562 8.48858 102.39 5.13681 107.641 5.18282Z" fill="black"/>
<path d="M120.676 64.2895C119.445 64.2278 118.424 65.1804 118.37 66.4008C117.147 93.8854 96.0503 116.367 69.2918 119.857L76.9066 113.642C77.1921 113.665 77.4799 113.68 77.7713 113.68C78.992 113.68 79.981 112.69 79.981 111.468C79.981 110.246 78.992 109.256 77.7713 109.256C74.3439 109.256 71.5552 106.465 71.5552 103.034C71.5552 99.603 74.3439 96.8116 77.7713 96.8116C78.992 96.8116 79.981 95.8215 79.981 94.5997C79.981 93.3778 78.992 92.3877 77.7713 92.3877C74.0486 92.3877 70.7688 94.3136 68.8681 97.2206L64.21 101.022V94.0018C67.8287 93.0257 70.5001 89.7134 70.5001 85.7871C70.5001 81.0955 66.6873 77.2787 62.0003 77.2787C57.3133 77.2787 53.5004 81.0952 53.5004 85.7871C53.5004 89.7134 56.1719 93.0254 59.7905 94.0018V104.629L48.276 114.027C47.6605 113.008 47.0241 111.993 46.3662 110.991C42.145 104.564 36.839 99.9935 33.1299 97.2902C31.8653 96.3692 30.2048 96.3294 28.8996 97.1885C27.5949 98.047 26.9735 99.5888 27.3171 101.117C27.9008 103.708 28.8489 107.04 30.3565 110.629C14.916 100.189 5.57002 82.8185 5.57002 63.8444C5.57002 37.106 24.5366 13.8297 50.6684 8.49844C51.8643 8.25454 52.636 7.08635 52.3923 5.88927C52.1484 4.69219 50.9813 3.91891 49.7857 4.16369C43.5027 5.44542 37.4813 7.73341 31.946 10.8873C29.6426 4.51229 23.5322 0.0578045 16.5984 0C16.5495 0.000884762 16.5012 0.000589841 16.4525 0.000589841C12.1091 0.000589841 8.01723 1.67692 4.91712 4.72935C1.78283 7.81569 0.0365427 11.9396 0.000597581 16.3416C-0.0571502 23.2082 4.07536 29.2576 10.2824 31.7553C4.35437 41.3382 1.15055 52.4749 1.15055 63.8453C1.15055 75.2602 4.32461 86.3891 10.3295 96.0291C14.9532 103.452 21.1045 109.767 28.3303 114.58C22.8027 113.769 17.8123 113.8 14.3671 114.007C12.6692 114.111 11.2977 115.301 10.9541 116.968C10.6106 118.634 11.3993 120.27 12.9146 121.037C16.6043 122.908 22.4468 125.437 29.3277 126.863C30.2027 127.043 31.0698 127.209 31.9319 127.368L28.1226 130.477C27.6857 130.311 27.2278 130.192 26.7514 130.137C25.2379 129.962 23.7464 130.385 22.5517 131.332C21.357 132.279 20.6021 133.634 20.4262 135.149C20.2503 136.664 20.6743 138.157 21.6201 139.353L29.1179 148.833C30.0636 150.029 31.4181 150.785 32.9319 150.961C33.1561 150.987 33.3797 151 33.6019 151C34.8806 151 36.1139 150.573 37.1316 149.766C38.3263 148.819 39.0811 147.463 39.257 145.948C39.3177 145.426 39.3021 144.907 39.2235 144.401L63.3538 124.705C63.4596 124.72 63.5671 124.731 63.677 124.731C63.6979 124.731 63.7191 124.731 63.7403 124.73C79.1502 124.297 93.6932 118.088 104.69 107.248C115.675 96.4193 122.101 81.9829 122.785 66.5978C122.839 65.3771 121.895 64.3437 120.676 64.2895ZM57.9193 85.788C57.9193 83.5357 59.7499 81.7034 61.9997 81.7034C64.2495 81.7034 66.08 83.5357 66.08 85.788C66.08 88.04 64.2495 89.8724 61.9997 89.8724C59.7499 89.8721 57.9193 88.04 57.9193 85.788ZM4.41978 16.3784C4.4463 13.1579 5.72382 10.1408 8.01664 7.88294C10.3095 5.62502 13.3403 4.39255 16.5613 4.4247C21.9566 4.46923 26.6701 8.15043 28.0758 13.2906C23.2247 16.5551 18.827 20.5194 15.0613 25.083C14.2849 26.0238 13.541 26.9876 12.8259 27.9703C7.79773 26.3892 4.375 21.723 4.41978 16.3784ZM71.9788 111.956L37.0511 140.465L31.4911 133.435L67.2108 104.281C67.5871 107.492 69.3955 110.27 71.9788 111.956ZM42.6727 113.421C43.4155 114.553 44.1308 115.702 44.815 116.853L40.9249 120.027C40.0431 118.823 39.1713 117.573 38.3225 116.283C34.9386 111.127 33.0686 105.684 32.101 102.063C35.037 104.387 39.2841 108.262 42.6727 113.421ZM30.221 122.531C25.2252 121.495 20.8051 119.829 17.4643 118.315C21.1398 118.257 25.8613 118.48 30.8453 119.51C32.5774 119.869 34.2966 120.268 35.9728 120.695C36.4754 121.42 36.9831 122.132 37.4948 122.827L36.4925 123.645C34.4634 123.343 32.3612 122.972 30.221 122.531ZM34.8664 145.437C34.827 145.778 34.657 146.084 34.3877 146.297C34.1187 146.511 33.7825 146.607 33.4416 146.566C33.1007 146.527 32.7955 146.357 32.5825 146.087L25.0847 136.607C24.8716 136.338 24.7762 136.002 24.8157 135.66C24.8554 135.319 25.0254 135.014 25.2944 134.8C25.5237 134.618 25.8015 134.522 26.0897 134.522C26.1397 134.522 26.1901 134.525 26.2405 134.531C26.5814 134.571 26.8866 134.741 27.0996 135.01L34.5974 144.49C34.8108 144.759 34.9062 145.096 34.8664 145.437Z" fill="black"/>
<path d="M66.8993 71.4268C70.1184 81.7708 76.027 89.6104 82.7051 92.3974C84.4703 93.1341 86.2569 93.5019 88.0244 93.5016C90.1077 93.5016 92.1646 92.9908 94.1259 91.9715C97.5395 90.1979 99.9225 86.7665 101.017 82.0475C102.938 73.7643 100.617 62.0866 95.7323 55.4621C88.446 45.5796 75.4586 50.2936 74.9092 50.4989L74.9094 50.4992C74.0577 50.8242 62.0193 55.7444 66.8993 71.4268ZM72.2807 57.8356C74.0674 55.5323 76.4009 54.6632 76.4242 54.6546C76.4333 54.6511 76.4436 54.6478 76.4515 54.6449C76.8749 54.4889 86.8809 50.9071 92.1766 58.0896C96.3124 63.699 98.3468 73.9973 96.7119 81.0471C96.1589 83.4315 94.9082 86.5816 92.09 88.0456C89.6284 89.3246 87.0427 89.4155 84.406 88.3145C79.0025 86.0596 73.9112 79.0844 71.1187 70.1111C69.5306 65.0066 69.9213 60.8766 72.2807 57.8356Z" fill="black"/>
<path d="M49.0901 50.4993C48.5407 50.2937 35.5536 45.58 28.267 55.4625C26.6277 57.6859 25.2088 60.5991 24.1637 63.8869C23.7936 65.0509 24.4365 66.2949 25.5994 66.6653C26.7621 67.0358 28.0051 66.3919 28.3752 65.2285C29.2753 62.3964 30.4676 59.9279 31.8232 58.0896C37.1187 50.9074 47.1249 54.4889 47.543 54.6429C47.5583 54.6488 47.5737 54.6541 47.5893 54.6597C47.9614 54.7895 56.6563 57.9776 52.8806 70.1115C50.0881 79.0847 44.9968 86.0596 39.5933 88.3152C36.9566 89.4152 34.3712 89.3253 31.9096 88.0462C28.2983 86.1696 26.3776 80.8808 26.7718 73.8989C26.8404 72.6794 25.9085 71.6347 24.6902 71.5657C23.4695 71.497 22.428 72.4296 22.3591 73.6493C21.8564 82.5512 24.5953 89.2297 29.8734 91.9722C31.835 92.9914 33.891 93.5022 35.9746 93.5022C37.7418 93.5022 39.529 93.1345 41.2939 92.398C47.972 89.6107 53.8809 81.7712 57.0997 71.4271C61.9803 55.7444 49.9416 50.8243 49.0901 50.4993Z" fill="black"/>
<path d="M74.8582 72.6585C76.0788 72.6585 77.0679 71.6684 77.0679 70.4466V70.2599C77.0679 69.0381 76.0788 68.048 74.8582 68.048C73.6375 68.048 72.6484 69.0381 72.6484 70.2599V70.4466C72.6484 71.6684 73.6375 72.6585 74.8582 72.6585Z" fill="black"/>
<path d="M51.3511 70.4466V70.2599C51.3511 69.0381 50.3617 68.048 49.1414 68.048C47.921 68.048 46.9316 69.0381 46.9316 70.2599V70.4466C46.9316 71.6684 47.921 72.6585 49.1414 72.6585C50.3617 72.6585 51.3511 71.6684 51.3511 70.4466Z" fill="black"/>
</svg>
