<svg width="148" height="151" viewBox="0 0 148 151" fill="none" xmlns="http://www.w3.org/2000/svg">
<path d="M138.335 57.2291H7.94884C2.61909 57.2291 0.593081 50.2493 5.08876 47.382L19.0431 38.4868L21.1726 37.1288L70.282 5.8205C72.0271 4.70563 74.2542 4.70563 75.9992 5.8205L98.9006 20.4206L135.614 43.8269L141.192 47.382C145.691 50.2493 143.665 57.2291 138.335 57.2291Z" fill="#F9F3F1"/>
<path d="M35.6584 67.3371H112.262V134.644H35.6584V67.3371Z" fill="#CDBFBA"/>
<path d="M55.3555 134.051V101.393C55.3555 96.6649 58.2951 92.8364 61.918 92.8364H84.5481C88.1712 92.8364 91.1106 96.6646 91.1106 101.393V134.051H55.3555Z" fill="#F9F3F1"/>
<path d="M70.7904 92.8367C67.1672 92.8367 64.2273 96.6646 64.2273 101.394V134.051H55.3542V101.394C55.3542 96.6646 58.2942 92.8367 61.9173 92.8367H70.7904Z" fill="#E1D3CE"/>
<path d="M136.729 57.1475V65.7593C136.729 66.7885 135.894 67.6246 134.868 67.6246H127.385H108.619H40.9999H22.2345H12.4561C11.4266 67.6246 10.5955 66.7882 10.5955 65.7593V57.1475H136.729Z" fill="#F9F3F1"/>
<path d="M137.243 148.461H11.1471C8.5127 148.461 6.37695 146.32 6.37695 143.679V138.24C6.37695 135.599 8.5127 133.458 11.1471 133.458H137.243C139.877 133.458 142.013 135.599 142.013 138.24V143.679C142.013 146.32 139.877 148.461 137.243 148.461Z" fill="#F9F3F1"/>
<path d="M74.1219 48.6843C81.6434 48.6843 87.7408 42.5717 87.7408 35.0313C87.7408 27.491 81.6434 21.3783 74.1219 21.3783C66.6003 21.3783 60.5029 27.491 60.5029 35.0313C60.5029 42.5717 66.6003 48.6843 74.1219 48.6843Z" fill="#FAF8F8"/>
<path d="M17.3118 67.6248H36.0783V125.156H17.3118V67.6248Z" fill="#F9F3F1"/>
<path d="M111.786 67.6248H130.553V124.86H111.786V67.6248Z" fill="#F9F3F1"/>
<path d="M12.5884 130.099V128.219C12.5884 126.364 14.0888 124.86 15.9394 124.86H36.1522C38.0029 124.86 39.5033 126.364 39.5033 128.219V130.099C39.5033 131.954 38.0029 133.458 36.1522 133.458H15.9394C14.0885 133.458 12.5884 131.954 12.5884 130.099Z" fill="#F9F3F1"/>
<path d="M107.234 130.099V128.219C107.234 126.364 108.735 124.86 110.585 124.86H130.798C132.649 124.86 134.149 126.364 134.149 128.219V130.099C134.149 131.954 132.649 133.458 130.798 133.458H110.585C108.734 133.458 107.234 131.954 107.234 130.099Z" fill="#F9F3F1"/>
<path d="M124.576 44.4995C136.07 44.4995 145.388 35.1064 145.388 23.5195C145.388 11.9325 136.07 2.53943 124.576 2.53943C113.081 2.53943 103.763 11.9325 103.763 23.5195C103.763 35.1064 113.081 44.4995 124.576 44.4995Z" fill="#FFE177"/>
<path d="M124.673 36.0476C131.508 36.0476 137.048 30.4623 137.048 23.5724C137.048 16.6824 131.508 11.0971 124.673 11.0971C117.838 11.0971 112.297 16.6824 112.297 23.5724C112.297 30.4623 117.838 36.0476 124.673 36.0476Z" fill="#FFC344"/>
<path d="M20.0188 148.462H11.1457C8.51338 148.462 6.37793 146.321 6.37793 143.679V138.241C6.37793 135.599 8.51338 133.458 11.1457 133.458H20.0188C17.3864 133.458 15.251 135.599 15.251 138.241V143.679C15.251 146.321 17.3864 148.462 20.0188 148.462Z" fill="#E1D3CE"/>
<path d="M24.813 133.458H15.9399C14.0884 133.458 12.5889 131.955 12.5889 130.099V128.219C12.5889 126.363 14.0884 124.86 15.9399 124.86H24.813C22.9615 124.86 21.4619 126.363 21.4619 128.219V130.099C21.4619 131.955 22.9618 133.458 24.813 133.458Z" fill="#E1D3CE"/>
<path d="M17.3125 67.6248H26.1856V125.156H17.3125V67.6248Z" fill="#E1D3CE"/>
<path d="M21.3291 67.6246H12.4561C11.4268 67.6246 10.5957 66.7885 10.5957 65.7596V57.149H19.4688V65.7596C19.4685 66.7885 20.2999 67.6246 21.3291 67.6246Z" fill="#E1D3CE"/>
<path d="M78.5571 47.9425C77.167 48.4228 75.6734 48.6837 74.1206 48.6837C66.5992 48.6837 60.5034 42.5727 60.5034 35.0325C60.5034 27.4923 66.5992 21.3783 74.1206 21.3783C75.6734 21.3783 77.167 21.6392 78.5571 22.1196C73.2155 23.9638 69.3765 29.049 69.3765 35.0325C69.3765 41.016 73.2155 46.0982 78.5571 47.9425Z" fill="#F3EAE6"/>
<path d="M16.8219 57.2291H7.94884C2.61909 57.2291 0.593081 50.2493 5.08876 47.3821L14.8491 41.1613L13.9618 42.033C9.46584 46.4569 11.4921 57.2291 16.8219 57.2291Z" fill="#E1D3CE"/>
<path d="M128.548 44.1172C127.258 44.3695 125.923 44.4997 124.559 44.4997C113.064 44.4917 103.755 35.0903 103.763 23.5034C103.771 11.9164 113.099 2.53106 124.593 2.53907C125.944 2.53907 127.266 2.6719 128.546 2.92423C118.961 4.79401 111.718 13.2949 111.71 23.5037C111.703 33.7252 118.948 42.2474 128.548 44.1172Z" fill="#FFD064"/>
<path d="M111.787 67.6248H120.66V124.86H111.787V67.6248Z" fill="#E1D3CE"/>
<path d="M119.459 133.458H110.586C108.735 133.458 107.235 131.955 107.235 130.099V128.219C107.235 126.363 108.735 124.86 110.586 124.86H119.459C117.608 124.86 116.108 126.363 116.108 128.219V130.099C116.108 131.955 117.608 133.458 119.459 133.458Z" fill="#E1D3CE"/>
<path d="M142.437 45.6869L138.125 42.9379C144.099 38.6338 148 31.6134 148 23.6928C148 10.6286 137.398 0 124.366 0C112.812 0 103.175 8.35649 101.136 19.3558L77.0251 3.9827C74.5661 2.41565 71.3868 2.41565 68.9278 3.98299L3.51541 45.6869C0.612446 47.5374 -0.642499 50.8725 0.318748 54.1839C1.27615 57.4825 4.10222 59.6168 7.52426 59.6328V66.0448C7.52426 68.3027 9.35654 70.1396 11.6088 70.1396H14.2589V122.122C11.796 122.469 9.89336 124.587 9.89336 127.147V131.574C6.47724 132.031 3.83307 134.969 3.83307 138.517V143.994C3.83307 147.857 6.96851 151 10.8221 151H113.785C115.01 151 116.003 150.004 116.003 148.776C116.003 147.548 115.01 146.552 113.785 146.552H10.8221C9.41451 146.552 8.26959 145.405 8.26959 143.994V138.517C8.26959 137.106 9.41451 135.958 10.8221 135.958H137.275C138.682 135.958 139.827 137.106 139.827 138.517V143.994C139.827 145.405 138.682 146.552 137.275 146.552H123.841C122.616 146.552 121.623 147.548 121.623 148.776C121.623 150.004 122.616 151 123.841 151H137.275C141.128 151 144.264 147.857 144.264 143.994V138.517C144.264 134.654 141.128 131.511 137.275 131.511H136.522V127.147C136.522 124.524 134.526 122.359 131.975 122.094V70.1396H134.344C136.596 70.1396 138.429 68.3027 138.429 66.0448V59.6328C141.851 59.6168 144.677 57.4825 145.634 54.1839C146.595 50.8725 145.34 47.5374 142.437 45.6869ZM124.366 4.44762C134.951 4.44762 143.563 13.081 143.563 23.6928C143.563 34.3048 134.951 42.9379 124.366 42.9379C113.781 42.9379 105.169 34.3045 105.169 23.6928C105.169 13.081 113.781 4.44762 124.366 4.44762ZM32.8926 70.1396V122.066H18.6957V70.1396H32.8926ZM37.3622 131.511H14.3302V127.147C14.3302 126.798 14.6171 126.514 14.9696 126.514H36.7198C37.0739 126.514 37.3622 126.798 37.3622 127.147V131.511ZM88.9147 131.511H57.5017V101.373C57.5017 97.9823 59.499 95.118 61.8631 95.118H84.553C86.9173 95.118 88.9147 97.9826 88.9147 101.373V131.511ZM132.086 131.511H109.054V127.147C109.054 126.798 109.341 126.514 109.693 126.514H131.447C131.799 126.514 132.086 126.798 132.086 127.147V131.511ZM127.538 122.066H113.342V70.1396H127.538V122.066ZM141.374 52.9415C141.059 54.027 140.11 55.187 138.39 55.187H55.0752C53.8498 55.187 52.857 56.1826 52.857 57.4108C52.857 58.6389 53.8498 59.6346 55.0752 59.6346H133.992V65.6923H98.9968C97.7714 65.6923 96.7785 66.6879 96.7785 67.9161C96.7785 69.1442 97.7714 70.1399 98.9968 70.1399H108.905V122.134C106.48 122.515 104.618 124.615 104.618 127.147V131.511H93.3512V101.373C93.3512 95.4715 89.4042 90.6704 84.553 90.6704H61.8631C57.0119 90.6704 53.0652 95.4715 53.0652 101.373V131.511H41.7988V127.147C41.7988 124.552 39.8429 122.409 37.3291 122.106V70.1396H88.9407C90.1661 70.1396 91.159 69.1439 91.159 67.9158C91.159 66.6876 90.1661 65.692 88.9407 65.692H11.9611V59.6343H45.0191C46.2445 59.6343 47.2374 58.6386 47.2374 57.4105C47.2374 56.1823 46.2445 55.1867 45.0191 55.1867H7.563C5.8434 55.1867 4.89399 54.0267 4.5787 52.9412C4.26371 51.8554 4.44413 50.3655 5.89605 49.4398L71.3079 7.73649C72.3218 7.0904 73.6317 7.09069 74.6444 7.73619L100.75 24.3804C101.115 37.127 111.565 47.3855 124.366 47.3855C127.704 47.3855 130.88 46.6843 133.762 45.4274L140.056 49.4403C141.509 50.3655 141.689 51.8557 141.374 52.9415Z" fill="black"/>
<path d="M74.0483 19.1659C65.2959 19.1659 58.1753 26.3043 58.1753 35.0786C58.1753 43.8529 65.2959 50.9913 74.0483 50.9913C82.801 50.9913 89.9216 43.8529 89.9216 35.0786C89.9216 26.3043 82.801 19.1659 74.0483 19.1659ZM74.0483 46.544C67.7422 46.544 62.6118 41.4007 62.6118 35.0789C62.6118 28.757 67.7422 23.6138 74.0483 23.6138C80.3544 23.6138 85.4851 28.757 85.4851 35.0789C85.4851 41.4007 80.3544 46.544 74.0483 46.544Z" fill="black"/>
<path d="M124.366 38.2803C132.39 38.2803 138.917 31.7364 138.917 23.6924C138.917 15.6487 132.39 9.1048 124.366 9.1048C116.343 9.1048 109.815 15.6487 109.815 23.6924C109.815 31.7364 116.343 38.2803 124.366 38.2803ZM124.366 13.5527C129.943 13.5527 134.481 18.1014 134.481 23.6927C134.481 29.284 129.943 33.833 124.366 33.833C118.789 33.833 114.251 29.2842 114.251 23.6927C114.251 18.1014 118.789 13.5527 124.366 13.5527Z" fill="black"/>
</svg>
