<svg width="98" height="50" viewBox="0 0 98 50" fill="none" xmlns="http://www.w3.org/2000/svg">
<g clip-path="url(#clip0)">
<path d="M21.3462 0.0619429C26.8474 0.0619429 32.3525 0.0116508 37.8419 4.49256e-05C45.4351 -0.0192982 52.1474 6.20919 49.4342 15.668C48.4669 19.0376 46.485 21.4709 46.485 21.4709C46.485 21.4709 46.1704 19.1613 43.3785 16.8324C43.3785 16.8324 41.3613 14.6892 37.7594 13.9967C36.041 13.6679 34.6214 13.6756 29.1399 15.254C21.4838 17.4592 21.8731 17.7919 19.3919 18.1865C11.0005 19.5173 4.65776 15.8111 2.03496 7.87657C1.44512 6.097 1.09909 4.26714 0.863153 2.40633C0.646879 0.704135 1.18166 -0.00769233 3.08094 0.0232567C9.16804 0.12771 15.2552 0.0619429 21.3462 0.0619429Z" fill="black"/>
<path d="M37.9894 27.8156C35.2684 27.8814 32.803 25.5563 32.7401 22.8677C32.6733 20.1983 35.0404 17.7959 37.7967 17.7301C40.5177 17.6644 42.9831 19.9894 43.046 22.6781C43.1129 25.3474 40.7418 27.7499 37.9894 27.8156Z" fill="black"/>
<path d="M39.3699 43.3826C34.4664 44.0712 33.5541 43.6921 31.9144 43.4445C24.4077 42.3148 17.2511 36.9684 20.3221 27.7765C21.895 23.0723 26.3109 21.6448 26.3109 21.6448C26.3109 21.6448 25.0841 23.5597 26.5547 26.1749C26.5547 26.1749 28.222 29.2776 31.997 29.4439C33.7468 29.5213 35.1349 29.765 40.6164 28.1866C48.2725 25.9815 47.8832 25.6488 50.3645 25.2542C58.7559 23.9195 66.0187 29.0184 67.7214 35.5602C67.7214 35.5602 68.5511 37.9201 68.0359 40.9956C67.1512 46.2763 61.4652 49.406 61.4652 49.406C61.4652 49.406 61.3433 41.1426 52.7907 41.1426C44.5998 41.1465 44.0847 42.7172 39.3699 43.3826Z" fill="#FFB600"/>
<path d="M72.6944 12.1282C72.545 5.83007 78.1366 0.158672 84.6405 0.00392673C91.0658 -0.150818 96.8894 5.33876 97.0349 11.6872C97.1844 17.9853 91.5927 23.6567 85.0888 23.8114C78.6674 23.9662 72.8438 18.4766 72.6944 12.1282Z" fill="black"/>
<path d="M66.813 0.00392673C60.3091 0.158672 54.7174 5.83007 54.8668 12.1282C55.0163 18.4766 60.8399 23.9662 67.2613 23.8114C73.7652 23.6567 79.3568 17.9853 79.2074 11.6872C79.0619 5.33876 73.2383 -0.150818 66.813 0.00392673Z" fill="#FFB600"/>
</g>
<defs>
<clipPath id="clip0">
<rect width="98" height="50" fill="white"/>
</clipPath>
</defs>
</svg>
